<?xml version="1.0" encoding="UTF-8"?>
<svg id="Layer_1" xmlns="http://www.w3.org/2000/svg" version="1.1" viewBox="0 0 1428.8 324">
  <!-- Generator: Adobe Illustrator 29.1.0, SVG Export Plug-In . SVG Version: 2.1.0 Build 142)  -->
  <defs>
    <style>
      .st0 {
      fill: #fff;
      }
    </style>
  </defs>
  <path class="st0"
        d="M46.9,276.6l47.3-46.9.2,34.6c0,19,0,34.6,0,34.7-.2,0-20.8,5.4-46,11.9-25.1,6.5-46.4,11.9-47.2,12.1-.8.2,19.7-20.7,45.8-46.4h0Z"/>
  <path class="st0"
        d="M113.8,293.2c.4-.8,63.8-71.7,67.8-76,1.4-1.4,1.4-.8,1.4,28.9v30.4l-34.4,8.8c-19,4.8-34.7,8.8-34.9,8.8s-.3-.5,0-.9h0Z"/>
  <path class="st0"
        d="M197.3,271.9c.6-.8,12.9-16.1,27.3-34.1l26.2-32.6.2,26.6c0,14.6,0,26.8-.4,27.1-.4.2-12.2,3.5-26.5,7-14.2,3.7-26.3,6.8-26.9,7-1,.4-1,.2,0-1h0Z"/>
  <path class="st0"
        d="M269.6,244.8c4.8-6.5,14.7-20,22-30l13.3-18.1.2,24.1c0,13.3,0,24.2-.1,24.4-.1.1-9.5,2.6-20.8,5.6-11.3,2.9-21.1,5.4-21.9,5.6-.8.2,2.3-4.6,7.4-11.5h0Z"/>
  <path class="st0"
        d="M0,235.8c0,0,20.3-18,45.2-39.7,24.8-21.8,46-40.4,47.2-41.4l2-1.9v69.8l-47.2,6.7C21.2,233,0,235.9,0,235.8h0Z"/>
  <path class="st0"
        d="M121.3,211.1c4.6-4.9,20.3-20.9,35-35.5l26.7-26.6v30.6c0,16.8,0,30.5-.2,30.5s-15.5,2.2-34.3,4.9-34.3,4.9-34.7,4.9,3-4,7.6-8.8h0Z"/>
  <path class="st0" d="M223.7,177.2l27.1-30.7.2,26.6c0,14.6,0,26.8-.1,27-.4.3-50.9,7.6-53.1,7.6s8.8-11.4,25.9-30.6h0Z"/>
  <path class="st0"
        d="M112.6,145.3c.2-.1,16-14.2,35.2-31.2l34.9-30.9.2,29.8c0,16.4,0,30-.2,30.2-.2.2-14.6.8-32.1,1.4-36.8,1.1-38.4,1.1-37.9.8h0Z"/>
  <path class="st0"
        d="M223.4,115.7c15-15.3,27.4-27.8,27.5-27.8s.3,12.1.3,26.9v26.8l-18.9.5c-10.4.2-22.9.7-27.6,1l-8.6.4,27.3-27.9h0Z"/>
  <path class="st0"
        d="M263.3,139.1c1-1.3,10.7-12.5,21.7-25l19.9-22.6.2,24.2c0,13.3,0,24.2,0,24.4-.1,0-10,.4-21.9.8l-21.8.5,1.9-2.2h0Z"/>
  <path class="st0"
        d="M284.6,85.9c-10.7-1-20.4-1.8-21.5-1.9-1.8-.2.2-2.5,20-22.7l22-22.5v24.6c0,13.5-.2,24.4-.4,24.4-.4,0-9.4-.9-20.1-1.9h0Z"/>
  <path class="st0"
        d="M220.4,80.4c-12.2-1.1-22.4-2.2-22.7-2.4-.4-.4,52.3-48.7,53.2-48.7s.4,12,.4,26.6v26.6h-4.3c-2.4-.1-14.4-1.1-26.6-2.2h0Z"/>
  <path class="st0"
        d="M149.2,74.3c-17.9-1.6-33.6-2.9-34.7-3.1-1.8-.2,2.4-3.7,31.8-26.5,18.7-14.4,34.5-26.7,35.3-27.2,1.3-1,1.4,0,1.4,29.4s-.2,30.4-.5,30.4c-.4,0-15.3-1.4-33.2-3h0Z"/>
  <path class="st0"
        d="M49.1,65.6c-24.8-2.2-46-4-47.2-4.1-1.9-.2,4.5-4.7,45-30.9L94.1,0l.2,17.2c0,9.5,0,25.1,0,34.7l-.2,17.5-45-3.8h0Z"/>
  <path class="st0"
        d="M763.9,264.1c-9.1-2-14.4-6.8-15.8-14.4l-.5-2.9h3c2.8,0,3,.1,4.2,3.4,2.5,6.3,8,9.1,17,8.5,8.2-.6,12.8-4.7,11.6-10.5-.8-4.4-3.2-5.9-14.8-8.9-9.5-2.5-13.3-4.2-16-7.4-2.4-2.9-3-5.1-2.5-9.4.8-7.4,7.9-12.3,17.8-12.3s12.1,1.6,15.6,5.2c2.2,2.2,5.3,8.7,4.4,9.4-.2,0-1.4.4-2.9.6-2.6.4-2.7.3-4.2-3.2-1.8-4.4-4.6-6-10.7-6.5-8.1-.8-14.3,2.9-14.3,8.1s2.1,6.4,14,9.4c4.5,1.1,9.8,2.8,11.7,3.8,11.4,5.8,10.5,20.6-1.7,25.7-4.3,1.9-11.6,2.5-16.1,1.6h0Z"/>
  <path class="st0"
        d="M999.2,264.1c-6.1-1.3-10.3-4.6-12.8-10.1-1.1-2.6-1.3-5.8-1.6-23l-.2-20.1h5.9l.3,19c.3,17.2.5,19.2,1.9,22.4,2,4.5,6.2,6.7,12.7,6.7s10.7-2.3,12.7-6.4c1.3-2.7,1.5-4.8,1.7-22.3l.3-19.4h5.8v19c0,21.9-.5,24.8-5,29.2-1.6,1.5-4.1,3.3-5.6,3.9-3.5,1.5-11.9,2.1-16.1,1.2h0Z"/>
  <path class="st0"
        d="M1131.2,264.1c-4.4-.9-10.3-4.3-13.1-7.4-1.3-1.4-3.2-4.5-4.3-6.8-1.7-3.7-1.9-5-1.9-12.4,0-6.8.4-9,1.7-12.5,2.1-5.2,6.7-10.1,11.8-12.6,3.2-1.6,4.8-1.9,11.2-1.9s8,.2,11.2,1.8c4.9,2.5,9.2,6.8,11.6,12,1.7,3.8,1.9,5.1,1.9,12.8s-.2,9-2.1,13.2c-1.2,2.6-3.4,5.8-4.9,7.3-5.5,5.3-15.5,8.1-23.2,6.5h0ZM1146.4,256.5c6.3-3.8,8.9-10.4,8.4-21.1-.2-6.1-.6-7.5-2.6-11-1.7-2.9-3.4-4.8-5.9-6.4-3.3-2-4.3-2.2-9.7-2.2s-6.5.3-9.6,2.1c-6.4,3.7-8.8,9.3-8.8,19.6s2.8,15.5,8.6,19.1c5.2,3.1,14.4,3.1,19.6,0h0Z"/>
  <path class="st0" d="M579,237.4v-26.6h6.8v53.3h-6.8v-26.6h0Z"/>
  <path class="st0" d="M615,240.1v-24h-17.2v-5.2h42v5.2h-18v48h-6.8v-24Z"/>
  <path class="st0"
        d="M669.8,237.6v-26.8h12.6c18.7,0,23.2,1.9,28,11.9,2.4,4.9,2.5,5.2,2.5,14.4s0,9.5-2.5,14.4c-4.8,9.8-9.2,11.8-27.7,12.4l-13,.5v-26.7h0ZM695.8,257.3c7.3-1.9,10.7-8.4,10.7-20.4s-.9-11.5-4-15.2c-3.3-4-6.3-4.9-16.8-5.4l-9.2-.4v42.2h8c4.3,0,9.5-.4,11.3-.8h0Z"/>
  <path class="st0" d="M727.5,237.4v-26.6h6.8v53.3h-6.8v-26.6h0Z"/>
  <path class="st0" d="M816.8,240.1v-24h-18v-5.2h42v5.2h-18v48h-6v-24Z"/>
  <path class="st0"
        d="M851.2,237.4v-26.6h14.8c8.5,0,16,.4,17.8.8,6.2,1.7,11,9.3,9.8,15.6-1,5.7-4.8,9.4-11.4,11.3l-3.2,1,3.8,3.4c3.3,2.9,7,8.1,13.3,18.3l1.7,2.8h-8c0,0-3.8-6.1-3.8-6.1-5.6-9.1-9.8-14.7-12.6-16.4-1.9-1.2-3.8-1.5-8.9-1.5h-6.6v24h-6.8v-26.6h0ZM884.4,231.2c2.1-2.1,2.5-2.9,2.5-6.1s-.5-4.1-1.5-5.3c-2.8-3.1-5.6-3.8-16.9-3.8h-10.5v18.1l12-.2,12-.2,2.4-2.5Z"/>
  <path class="st0" d="M909.8,237.4v-26.6h6v53.3h-6v-26.6h0Z"/>
  <path class="st0"
        d="M931.5,237.5v-26.7h12.2c13.9,0,16.7.6,20.7,4.2,5.8,5.2,5.8,12.7,0,17.9-1.7,1.5-2.9,2.8-2.8,2.9,4.8,2.5,6.5,3.8,7.9,6.2,4.3,7.6,0,18-8.6,20.5-1.5.5-8.8,1-16,1.3l-13.3.5v-26.8h0ZM960.8,256.4c2.5-1.6,3.7-4.3,3.7-8.2,0-6.8-3.2-8.6-16.4-9.2l-9.8-.5v19.9l10.3-.3c8.2-.1,10.7-.5,12.2-1.6h0ZM956.2,232.9c1.3-.3,3.2-1.3,4.2-2.2,1.5-1.4,1.9-2.4,1.9-5.5,0-7.1-3.5-8.9-17.4-9h-6.6c0,0,0,17.2,0,17.2h7.8c4.3,0,8.8-.2,10.1-.4h0Z"/>
  <path class="st0" d="M1055.2,240.1v-24h-18v-5.2h42v5.2l-8.8.2-8.8.2-.2,23.9-.2,23.8h-6v-24Z"/>
  <path class="st0" d="M1091.2,237.4v-26.6h6v53.3h-6v-26.6h0Z"/>
  <path class="st0"
        d="M1174.5,237.4v-26.6h6.8l14,21.1,14.1,21.1.2-21.1.2-21.1h6.8v53.2h-6.7l-14.1-21c-7.7-11.6-14.3-21-14.6-21s-.6,9.4-.6,21v21h-6v-26.6h0Z"/>
  <path class="st0"
        d="M1389.6,170.3c-6.2-.7-9.4-1.6-15.2-4.7-10.7-5.6-19.3-18.2-22.2-32.7-2-9.8-2-26.2,0-35.8,3.2-15.6,12.3-28.6,24.1-34.1,7.1-3.4,11.6-4.3,21.2-4.3s15.5,1.4,24.4,5.7l6.9,3.3v12.8c0,7.1-.2,12.8-.4,12.8s-3-2.2-6.2-4.9c-7.8-6.8-13.8-9.6-21.6-9.9-7.7-.4-13.1,1.6-17.9,6.2-6.8,6.6-9.8,15.5-9.8,30,0,18.5,4.8,28.8,15.8,34.2,4.5,2.2,5.6,2.5,12.2,2.5h7.2c0,0,0-21.7,0-21.7l-8.4-.2-8.5-.2v-19.4h37.5v53.1l-6.2,2.4c-11.8,4.5-23.2,6.3-33,5.2h0Z"/>
  <path class="st0"
        d="M537.4,169.2c-4.7-1.1-12.8-3.9-16.8-5.9l-2.3-1.3v-12.7c0-7.1.2-12.8.4-12.8s2.5,1.6,4.9,3.8c9.2,7.6,16.6,10.6,26.2,10.7,7.9,0,12.9-1.9,15.2-6.2,2-3.6,1.5-9.1-1-11.7-2.5-2.8-4.5-3.6-14.9-6.7-15.2-4.5-21.8-8.7-26-16.7-3.1-5.7-4.3-12.2-3.8-20.1.9-13.4,9.2-24,22.8-29,3.8-1.3,6-1.7,14.2-1.6,8.4,0,10.7.3,16.3,2,3.7,1,8,2.6,9.6,3.4l2.9,1.5v12c0,8.2-.2,12-.8,12s-2.4-1.3-4.3-3c-1.9-1.7-5.8-4.2-8.7-5.6-16.6-8-33.2-2-29.7,10.8,1.1,4.2,4.3,6.2,15.8,9.4,16.9,4.9,23.5,9.2,27.9,18.2,2.2,4.5,2.5,5.8,2.7,13,.5,12.4-2.5,20.6-10,27.6-7.3,6.9-16,9.8-28.9,9.8-3.9,0-9.2-.5-11.6-1.1h0Z"/>
  <path class="st0" d="M366.8,159.4v-9.4h12.8v-71.2h-12.8v-18h46.5v18h-12.8v71.2h12.8v18.8h-46.5v-9.4h0Z"/>
  <path class="st0"
        d="M429,114.8v-54h26.8l13.7,30.2c7.6,16.6,14,30.4,14.4,30.9.3.4.6-13.2.6-30.2v-30.9h19.5v108.1l-10.3-.2-10.2-.2-16.8-37.1c-9.2-20.4-17.1-37.4-17.5-37.9-.4-.4-.7,13.7-.7,37.3v38h-19.5v-54h0Z"/>
  <path class="st0" d="M597,159.4v-9.4h12.8v-71.2h-12.8v-18h47.2v18h-12.8v71.2h12.8v18.8h-47.2v-9.4h0Z"/>
  <path class="st0"
        d="M659.2,115v-54.2h19c21.6,0,27.8.8,35,4.5,10.4,5.2,19.8,18.3,23,32,2.1,8.9,1.9,27.1-.4,34.9-4.4,15.5-12.5,26.2-24,32.1-5.7,2.9-12.9,3.8-33.3,4.3l-19.3.4v-54.1h0ZM701,146.5c9.8-5.1,14.5-15.6,14.5-32s-4.7-26.9-14.5-32c-2.5-1.3-4.7-1.7-11.5-1.9l-8.5-.3v68.6l8.5-.3c6.8-.2,9-.6,11.5-1.9h0Z"/>
  <path class="st0"
        d="M752.2,114.8v-54h59.2v19.5h-38.2v20.2h35.2v19.5l-17.4.2-17.5.2-.2,14.1-.2,14h38.2v20.2h-59.2v-54h0Z"/>
  <path class="st0" d="M879.8,124.6v-44.2h-26.2v-19.5h74.2v19.5h-26.2v88.5h-21.8v-44.3Z"/>
  <path class="st0"
        d="M937.5,114.8v-54l24.2.2,24.2.2,5,2.5c5.8,2.8,9.8,6.9,12.5,12.8,1.7,3.4,2,5.6,2.2,12,.6,14.7-3.3,23.8-13.7,32l-2.8,2.2,13.3,20.6c7.3,11.2,13.7,21,14.2,21.6,1.2,1.2-.6,7.1,16.6-55.2l13.4-49h24l14.6,53.1c8,29.2,14.8,53.5,14.9,54,.2.8-2,.9-10.8.8l-11.1-.2-5.4-21.8-14.3-.2h-14.3c0-.1-5.6,22.4-5.6,22.4h-46l-12.5-20.1-12.4-20-4.3-.2-4.3-.2v40.6h-21.8v-54.1h0ZM1067.4,127.1c.2-.2-1.7-8.5-4.1-18.3-2.6-9.9-4.8-17.7-5.1-17.4-.5.7-8.9,33.4-8.9,35s1.2,1.2,8.8,1.2,9.1-.2,9.3-.4h0ZM977.2,107.6c4.1-2.4,6.2-7,6.3-13.7,0-4.4-.3-6.3-1.4-8.3-2.6-4.3-5.6-5.6-14.8-5.9l-8.1-.2v30.3l7.7-.3c6-.2,8.2-.6,10.3-1.8h0Z"/>
  <path class="st0"
        d="M1110,115v-54.2h18.6c19.5,0,25.3.6,32,3.1,12.1,4.5,22.2,17.5,25.8,33,5.4,23.5-.2,47-14.2,60.3-9.8,9.1-15.5,10.7-42.8,11.4l-19.3.4v-54.1h0ZM1151.2,146.8c10.5-5.5,15.8-18.5,14.8-36.2-.7-11.6-3.8-19.7-9.8-24.9-4.9-4.3-6.9-4.9-16-5.2l-8.5-.3v68.6l8.5-.4c6.1-.2,9.1-.7,10.9-1.6h0Z"/>
  <path class="st0" d="M1199.2,159.4v-9.4h12.8v-71.2h-12.8v-18h46.5v18h-12.8v71.2h12.8v18.8h-46.5v-9.4h0Z"/>
  <path class="st0"
        d="M1261.5,114.8v-54h26.8l13.7,30.2c7.5,16.6,13.9,30.4,14.3,30.9.4.4.7-12.5.7-30.2v-30.9h19.5v108.1l-10.3-.2-10.3-.2-16.8-37.1c-9.2-20.4-17.1-37.4-17.5-37.9-.4-.4-.7,13.9-.7,37.3v38h-19.5v-54h0Z"/>
  <path class="st0"
        d="M3.5,145.8c2-1.6,23.3-17.8,47.2-36l43.5-33.2.2,34.7c0,19,0,34.7,0,34.7-.2.1-88.3,2.7-92.4,2.6-2.1,0-2.1,0,1.5-2.8h0Z"/>
  <path class="st0"
        d="M261.8,198.3c.1-.4,9.9-12.8,21.7-27.4l21.4-26.7.2,24.1c0,13.3,0,24.1,0,24.3-.1,0-8.9,1.4-19.4,2.9s-20.2,2.9-21.7,3.1c-1.5.2-2.4.1-2.2-.3h0Z"/>
</svg>
