<?xml version="1.0" encoding="UTF-8"?>
<svg id="Layer_1" data-name="Layer 1" xmlns="http://www.w3.org/2000/svg" width="305.25" height="324"
     viewBox="0 0 305.25 324">
  <defs>
    <style>
      .cls-1 {
      fill: #393185;
      }
    </style>
  </defs>
  <path class="cls-1"
        d="M46.88,276.6l47.25-46.88.23,34.57c.07,18.97.07,34.57,0,34.72-.15.08-20.78,5.4-45.98,11.85-25.12,6.45-46.43,11.93-47.25,12.15-.82.23,19.73-20.7,45.75-46.42h0ZM46.88,276.6"/>
  <path class="cls-1"
        d="M113.77,293.18c.45-.82,63.83-71.7,67.8-75.98,1.43-1.43,1.43-.75,1.43,28.95v30.38l-34.35,8.78c-18.97,4.8-34.65,8.77-34.95,8.77s-.3-.45.07-.9h0ZM113.77,293.18"/>
  <path class="cls-1"
        d="M197.32,271.88c.6-.82,12.9-16.12,27.3-34.05l26.25-32.55.23,26.55c.07,14.55-.08,26.78-.38,27.07-.38.23-12.23,3.45-26.48,7.05-14.25,3.68-26.32,6.75-26.93,6.98-.97.38-.97.22,0-1.05h0ZM197.32,271.88"/>
  <path class="cls-1"
        d="M269.63,244.8c4.8-6.53,14.7-20.03,21.98-30l13.27-18.15.23,24.08c.07,13.27.07,24.22-.15,24.38-.15.15-9.52,2.62-20.77,5.55-11.32,2.85-21.15,5.4-21.9,5.63-.75.23,2.33-4.57,7.35-11.47h0ZM269.63,244.8"/>
  <path class="cls-1"
        d="M0,235.8c0-.07,20.32-18,45.23-39.68,24.82-21.75,46.05-40.35,47.25-41.4l2.02-1.95v69.83l-47.25,6.67c-26.02,3.75-47.25,6.68-47.25,6.53h0ZM0,235.8"/>
  <path class="cls-1"
        d="M121.35,211.05c4.57-4.88,20.32-20.85,34.95-35.48l26.7-26.63v30.6c0,16.8-.07,30.52-.23,30.52s-15.52,2.18-34.27,4.88-34.35,4.88-34.73,4.88,3-3.97,7.58-8.77h0ZM121.35,211.05"/>
  <path class="cls-1"
        d="M223.73,177.23l27.15-30.68.23,26.62c.07,14.62,0,26.77-.15,27-.38.3-50.93,7.65-53.1,7.65-.83,0,8.77-11.4,25.88-30.6h0ZM223.73,177.23"/>
  <path class="cls-1"
        d="M112.57,145.27c.15-.15,15.98-14.17,35.18-31.2l34.88-30.9.23,29.77c.07,16.43,0,30-.23,30.23-.23.22-14.62.82-32.1,1.35-36.82,1.12-38.4,1.12-37.95.75h0ZM112.57,145.27"/>
  <path class="cls-1"
        d="M223.43,115.65c15-15.3,27.38-27.82,27.52-27.82s.3,12.07.3,26.93v26.85l-18.9.52c-10.43.23-22.88.68-27.6.98l-8.63.45,27.3-27.9ZM223.43,115.65"/>
  <path class="cls-1"
        d="M263.32,139.05c.98-1.28,10.73-12.53,21.68-24.98l19.88-22.57.23,24.15c.07,13.28.07,24.23,0,24.37-.15.08-9.98.45-21.9.75l-21.75.53,1.88-2.25ZM263.32,139.05"/>
  <path class="cls-1"
        d="M284.63,85.88c-10.73-.98-20.4-1.8-21.45-1.95-1.8-.23.22-2.48,20.02-22.73l21.98-22.5.07,24.6c0,13.5-.23,24.45-.52,24.45-.38-.07-9.38-.9-20.1-1.88h0ZM284.63,85.88"/>
  <path class="cls-1"
        d="M220.35,80.4c-12.23-1.12-22.43-2.17-22.73-2.4-.38-.45,52.35-48.68,53.25-48.68.23,0,.38,12,.38,26.62v26.62l-4.27-.07c-2.4-.07-14.4-1.05-26.62-2.1h0ZM220.35,80.4"/>
  <path class="cls-1"
        d="M149.25,74.25c-17.93-1.57-33.6-2.93-34.73-3.07-1.8-.23,2.4-3.68,31.8-26.48,18.68-14.4,34.5-26.7,35.32-27.22,1.28-.98,1.35,0,1.35,29.4,0,16.73-.23,30.38-.52,30.38-.38-.07-15.3-1.43-33.23-3h0ZM149.25,74.25"/>
  <path class="cls-1"
        d="M49.12,65.62c-24.75-2.18-45.98-3.98-47.18-4.12-1.88-.23,4.5-4.65,45-30.9L94.12,0l.23,17.25c.07,9.45.07,25.12,0,34.73l-.23,17.47-45-3.82ZM49.12,65.62"/>
  <path class="cls-1"
        d="M3.45,145.8c2.03-1.57,23.25-17.78,47.18-36l43.5-33.23.23,34.65c.07,19.05.07,34.65,0,34.72-.23.15-88.28,2.7-92.4,2.62-2.1,0-2.1-.07,1.5-2.77h0ZM3.45,145.8"/>
  <path class="cls-1"
        d="M261.82,198.3c.15-.38,9.9-12.75,21.68-27.45l21.38-26.7.23,24.08c.07,13.27.07,24.15,0,24.3-.15.08-8.85,1.43-19.35,2.93s-20.25,2.93-21.68,3.15c-1.5.22-2.4.15-2.25-.3h0ZM261.82,198.3"/>
</svg>
