<?xml version="1.0" encoding="UTF-8"?>
<svg id="Layer_1" data-name="Layer 1" xmlns="http://www.w3.org/2000/svg" viewBox="0 0 260.08 70.01">
  <defs>
    <style>
      .cls-1 {
        fill: #3874ff;
      }
    </style>
  </defs>
  <g>
    <path class="cls-1" d="M106.44.94h11.69c2.3,0,4.16.31,5.58.94,1.42.63,2.59,1.52,3.52,2.69s1.6,2.53,2.01,4.08.63,3.2.63,4.93c0,2.72-.31,4.83-.93,6.33-.62,1.5-1.48,2.76-2.58,3.77s-2.28,1.69-3.54,2.02c-1.73.46-3.29.69-4.69.69h-11.69V.94ZM114.3,6.7v13.91h1.93c1.64,0,2.81-.18,3.51-.55.69-.37,1.24-1,1.63-1.91.39-.91.59-2.38.59-4.42,0-2.7-.44-4.54-1.32-5.54-.88-1-2.34-1.49-4.38-1.49h-1.96Z"/>
    <path class="cls-1" d="M133.98.94h21.08v5.43h-13.2v4.05h12.24v5.19h-12.24v5.02h13.58v5.77h-21.47V.94Z"/>
    <path class="cls-1" d="M159.6.94h10.35l3.99,15.49,3.96-15.49h10.34v25.46h-6.44V6.98l-4.96,19.42h-5.83l-4.96-19.42v19.42h-6.44V.94Z"/>
    <path class="cls-1" d="M192.26,13.68c0-4.16,1.16-7.39,3.47-9.71s5.54-3.47,9.67-3.47,7.5,1.14,9.79,3.41c2.29,2.28,3.44,5.46,3.44,9.56,0,2.98-.5,5.41-1.5,7.32-1,1.9-2.45,3.39-4.34,4.45s-4.25,1.59-7.08,1.59-5.25-.46-7.13-1.37c-1.88-.91-3.41-2.36-4.58-4.34-1.17-1.98-1.75-4.46-1.75-7.43ZM200.13,13.72c0,2.57.48,4.42,1.43,5.54s2.25,1.68,3.9,1.68,3-.55,3.92-1.65,1.39-3.07,1.39-5.92c0-2.4-.48-4.15-1.45-5.25-.97-1.11-2.28-1.66-3.93-1.66s-2.86.56-3.82,1.68c-.96,1.12-1.44,2.98-1.44,5.57Z"/>
    <path class="cls-1" d="M106.3,43.61h13.08c2.85,0,4.98.68,6.4,2.03,1.42,1.35,2.13,3.28,2.13,5.78s-.77,4.58-2.32,6.03c-1.55,1.45-3.9,2.17-7.08,2.17h-4.31v9.45h-7.9v-25.46ZM114.2,54.47h1.93c1.52,0,2.58-.26,3.2-.79.61-.53.92-1.2.92-2.02s-.27-1.48-.8-2.03c-.53-.56-1.53-.83-3-.83h-2.24v5.68Z"/>
    <path class="cls-1" d="M131.03,56.36c0-4.16,1.16-7.39,3.47-9.71,2.32-2.32,5.54-3.47,9.67-3.47s7.5,1.14,9.79,3.41c2.29,2.27,3.44,5.46,3.44,9.56,0,2.98-.5,5.41-1.5,7.32-1,1.91-2.45,3.39-4.34,4.45s-4.25,1.59-7.08,1.59-5.25-.46-7.13-1.37c-1.88-.91-3.41-2.36-4.58-4.34-1.17-1.98-1.75-4.46-1.75-7.43ZM138.89,56.4c0,2.57.48,4.42,1.43,5.54s2.25,1.68,3.9,1.68,3-.55,3.92-1.65,1.39-3.07,1.39-5.92c0-2.4-.48-4.15-1.45-5.25-.97-1.1-2.28-1.66-3.93-1.66s-2.86.56-3.82,1.68c-.96,1.12-1.44,2.98-1.44,5.57Z"/>
    <path class="cls-1" d="M161.75,69.07v-25.46h13.11c2.43,0,4.29.21,5.57.63s2.32,1.19,3.11,2.32c.79,1.13,1.18,2.5,1.18,4.12,0,1.41-.3,2.63-.9,3.66-.6,1.02-1.43,1.86-2.49,2.49-.67.41-1.59.74-2.76,1.01.94.31,1.62.63,2.05.94.29.21.71.65,1.26,1.34.55.68.92,1.21,1.1,1.58l3.81,7.38h-8.89l-4.21-7.78c-.53-1.01-1.01-1.66-1.42-1.96-.57-.39-1.21-.59-1.93-.59h-.69v10.33h-7.9ZM169.65,53.93h3.32c.36,0,1.05-.12,2.08-.35.52-.1.95-.37,1.28-.8.33-.43.5-.92.5-1.48,0-.82-.26-1.45-.78-1.89-.52-.44-1.5-.66-2.93-.66h-3.46v5.18Z"/>
    <path class="cls-1" d="M187.21,43.61h23.91v6.29h-8.02v19.17h-7.87v-19.17h-8.02v-6.29Z"/>
    <path class="cls-1" d="M227.92,64.87h-8.93l-1.24,4.2h-8.03l9.57-25.46h8.58l9.57,25.46h-8.24l-1.27-4.2ZM226.29,59.36l-2.81-9.15-2.78,9.15h5.59Z"/>
    <path class="cls-1" d="M239.93,43.61h7.87v19.19h12.28v6.27h-20.15v-25.46Z"/>
  </g>
  <g>
    <path class="cls-1" d="M89.01,31.04s-2.17-.11-3.34-1.61c-1.21-1.55-1.33-4.41-.35-8.25,1.43-5.63.8-10.42-1.86-14.22C79.2.9,71.35.05,71.01.02c-.13-.01-.26-.02-.4-.02-2.04,0-3.74,1.54-3.94,3.57-.1,1.05.21,2.08.88,2.9s1.62,1.33,2.67,1.43c.05,0,4.59.55,6.73,3.61,1.28,1.83,1.51,4.43.67,7.72-1.62,6.39-1.03,11.46,1.78,15.06.19.24.39.48.6.71-.21.23-.41.46-.6.71-2.8,3.61-3.4,8.67-1.78,15.06.83,3.28.61,5.87-.65,7.7-2.13,3.08-6.73,3.63-6.77,3.64-2.16.23-3.74,2.17-3.53,4.33.2,2.03,1.9,3.57,3.94,3.57.13,0,.26,0,.4-.02.33-.03,8.18-.88,12.43-6.94,2.67-3.81,3.3-8.59,1.86-14.22-.97-3.81-.86-6.65.33-8.21,1.16-1.54,3.32-1.64,3.4-1.65,2.16-.02,3.92-1.8,3.92-3.96s-1.78-3.96-3.94-3.96Z"/>
    <path class="cls-1" d="M22.75,62.11c-.19-.02-4.67-.6-6.78-3.64-1.27-1.83-1.49-4.42-.65-7.7,1.62-6.39,1.03-11.46-1.78-15.06-.19-.24-.39-.48-.6-.71.21-.23.41-.46.6-.71,2.8-3.6,3.4-8.67,1.78-15.06-.83-3.28-.61-5.87.65-7.7,2.1-3.04,6.59-3.62,6.77-3.64,2.16-.22,3.75-2.17,3.53-4.33-.2-2.03-1.9-3.57-3.94-3.57-.13,0-.26,0-.4.02-.33.03-8.18.88-12.43,6.94-2.67,3.81-3.29,8.59-1.86,14.22.97,3.81.85,6.65-.33,8.21-1.18,1.55-3.39,1.65-3.4,1.65-2.16.02-3.92,1.8-3.92,3.96s1.76,3.94,3.9,3.96c.09,0,2.25.11,3.41,1.65,1.18,1.56,1.29,4.4.33,8.21-1.43,5.63-.8,10.42,1.86,14.22,4.25,6.06,12.1,6.91,12.43,6.94.13.01.27.02.4.02,2.05,0,3.74-1.53,3.95-3.57.1-1.05-.2-2.08-.87-2.9-.67-.82-1.62-1.33-2.66-1.43Z"/>
    <path class="cls-1" d="M69.16,17.1H27.09c-2.18,0-3.96,1.78-3.96,3.96s1.78,3.96,3.96,3.96h42.06c2.18,0,3.96-1.78,3.96-3.96s-1.78-3.96-3.96-3.96Z"/>
    <path class="cls-1" d="M27.09,32.19c-2.18,0-3.96,1.78-3.96,3.96s1.78,3.96,3.96,3.96h9.07c2.18,0,3.96-1.78,3.96-3.96s-1.78-3.96-3.96-3.96h-9.07Z"/>
    <path class="cls-1" d="M69.16,32.19h-21.87c-2.18,0-3.96,1.78-3.96,3.96s1.78,3.96,3.96,3.96h21.87c2.18,0,3.96-1.78,3.96-3.96s-1.78-3.96-3.96-3.96Z"/>
    <path class="cls-1" d="M48.66,47.27h-21.56c-2.18,0-3.96,1.78-3.96,3.96s1.78,3.96,3.96,3.96h21.56c2.18,0,3.96-1.78,3.96-3.96s-1.78-3.96-3.96-3.96Z"/>
  </g>
</svg>