<?xml version="1.0" encoding="UTF-8"?>
<svg id="Camada_1" xmlns="http://www.w3.org/2000/svg" version="1.1" xmlns:xlink="http://www.w3.org/1999/xlink"
     viewBox="0 0 345.1 101.95">
  <!-- Generator: Adobe Illustrator 29.5.0, SVG Export Plug-In . SVG Version: 2.1.0 Build 137)  -->
  <defs>
    <style>
      .st0 {
      fill: url(#linear-gradient2);
      }

      .st1 {
      fill: url(#linear-gradient1);
      }

      .st2 {
      fill: #8f278f;
      }

      .st3 {
      fill: url(#linear-gradient3);
      }

      .st4 {
      fill: #a3238e;
      }

      .st5 {
      fill: url(#linear-gradient);
      }
    </style>
    <linearGradient id="linear-gradient" x1="123.54" y1="101.95" x2="123.54" y2="50.98" gradientUnits="userSpaceOnUse">
      <stop offset="0" stop-color="#741472"/>
      <stop offset=".15" stop-color="#3b0256"/>
      <stop offset="1" stop-color="#4c0055"/>
    </linearGradient>
    <linearGradient id="linear-gradient1" x1="123.54" y1="50.98" x2="123.54" y2="0" gradientUnits="userSpaceOnUse">
      <stop offset="0" stop-color="#9a258f"/>
      <stop offset=".29" stop-color="#812990"/>
      <stop offset="1" stop-color="#741472"/>
    </linearGradient>
    <linearGradient id="linear-gradient2" x1="151.48" y1="101.95" x2="151.48" y2="50.98"
                    gradientTransform="translate(183.81) rotate(-180) scale(1 -1)" xlink:href="#linear-gradient"/>
    <linearGradient id="linear-gradient3" x1="151.48" y1="50.98" x2="151.48" y2="0"
                    gradientTransform="translate(183.81) rotate(-180) scale(1 -1)" xlink:href="#linear-gradient1"/>
  </defs>
  <g>
    <path class="st5"
          d="M119.05,50.98c0,1.04-.3,2.07-.89,2.97l-26.04,39.61c-2.37,3.6.22,8.39,4.52,8.39h23.86c1.82,0,3.52-.92,4.52-2.44l29.95-45.56c.59-.9.89-1.94.89-2.97h-36.82Z"/>
    <path class="st4"
          d="M120.5,99.13h-23.86c-1.39,0-2.06-.95-2.28-1.36-.22-.41-.65-1.49.12-2.65l.25.16c-.68,1.03-.3,1.98-.1,2.35.2.36.78,1.2,2.02,1.2h23.86c.77,0,1.49-.39,1.91-1.03l28.88-43.93.25.16-28.88,43.93c-.48.73-1.29,1.17-2.16,1.17Z"/>
    <path class="st1"
          d="M125.02,2.44c-1-1.52-2.7-2.44-4.52-2.44h-23.86c-4.31,0-6.89,4.79-4.52,8.39l26.04,39.61c.59.9.89,1.94.89,2.97h36.82c0-1.04-.3-2.07-.89-2.97L125.02,2.44Z"/>
    <path class="st4"
          d="M151.29,48.08L122.41,4.16c-.43-.65-1.14-1.03-1.91-1.03h-23.86c-1.23,0-1.82.84-2.02,1.2-.2.36-.58,1.32.1,2.35l-.25.16c-.77-1.17-.34-2.24-.12-2.65.22-.41.88-1.36,2.28-1.36h23.86c.87,0,1.68.44,2.16,1.17l28.88,43.93-.25.16Z"/>
    <rect class="st4" x="119.05" y="50.83" width="36.82" height=".3"/>
    <path class="st0"
          d="M36.82,50.98c0,1.04.3,2.07.89,2.97l26.04,39.61c2.37,3.6-.22,8.39-4.52,8.39h-23.86c-1.82,0-3.52-.92-4.52-2.44L.89,53.95C.3,53.05,0,52.01,0,50.98h36.82Z"/>
    <path class="st4"
          d="M59.22,99.13h-23.86c-.87,0-1.68-.44-2.16-1.17L4.32,54.03l.25-.16,28.88,43.93c.43.65,1.14,1.03,1.91,1.03h23.86c1.23,0,1.82-.84,2.02-1.2.2-.36.58-1.32-.1-2.35l.25-.16c.77,1.17.34,2.24.12,2.65-.22.41-.88,1.36-2.28,1.36Z"/>
    <path class="st3"
          d="M30.84,2.44c1-1.52,2.7-2.44,4.52-2.44h23.86c4.31,0,6.89,4.79,4.52,8.39l-26.04,39.61c-.59.9-.89,1.94-.89,2.97H0C0,49.94.3,48.9.89,48L30.84,2.44Z"/>
    <path class="st4"
          d="M4.57,48.08l-.25-.16L33.2,3.99c.48-.73,1.29-1.17,2.16-1.17h23.86c1.39,0,2.06.95,2.28,1.36.22.41.65,1.49-.12,2.65l-.25-.16c.68-1.03.3-1.99.1-2.35-.2-.36-.78-1.2-2.02-1.2h-23.86c-.77,0-1.49.39-1.91,1.03L4.57,48.08Z"/>
    <rect class="st4" y="50.83" width="36.82" height=".3"/>
  </g>
  <g>
    <path class="st2"
          d="M192.51,29.68c0,2.78-.34,5.31-1.03,7.58-.69,2.27-1.76,4.21-3.21,5.81s-3.32,2.84-5.59,3.71c-2.27.87-4.99,1.3-8.16,1.3h-9.12V12.19h10.63c2.75,0,5.15.34,7.21,1.03,2.06.69,3.78,1.74,5.15,3.17,1.37,1.43,2.4,3.24,3.09,5.44.69,2.2,1.03,4.82,1.03,7.85ZM185.26,30.12c0-1.94-.16-3.67-.47-5.19-.31-1.52-.84-2.81-1.58-3.86-.74-1.05-1.73-1.85-2.98-2.4-1.25-.55-2.79-.82-4.64-.82h-3.43v24.58h2.97c3.31,0,5.83-.99,7.55-2.97s2.58-5.09,2.58-9.34Z"/>
    <path class="st2" d="M199.02,48.08V12.19h21.61v5.71h-14.75v8.93h14.06v5.58h-14.06v9.97h14.75v5.71h-21.61Z"/>
    <path class="st2"
          d="M248.62,48.08l-.66-20.3-.25-8.1-1.73,5.49-3.98,12.22h-4.23l-3.6-12.22-1.51-5.49-.19,7.94-.6,20.46h-5.74l1.76-35.9h7.63l3.16,10.19,1.51,5.74,1.51-5.41,3.32-10.52h7.77l1.79,35.9h-5.96Z"/>
    <path class="st2"
          d="M285.72,29.98c0,3.26-.38,6.07-1.14,8.43-.76,2.36-1.8,4.3-3.13,5.82-1.33,1.52-2.88,2.65-4.67,3.38-1.79.73-3.69,1.1-5.73,1.1-4.72,0-8.28-1.57-10.66-4.71-2.38-3.14-3.57-7.7-3.57-13.69,0-3.26.38-6.07,1.14-8.43.76-2.36,1.8-4.3,3.13-5.82,1.33-1.52,2.88-2.65,4.67-3.38,1.79-.73,3.69-1.1,5.73-1.1,4.72,0,8.28,1.57,10.66,4.7,2.38,3.13,3.57,7.7,3.57,13.71ZM278.58,30.31c0-4.25-.57-7.42-1.7-9.5-1.14-2.09-3-3.13-5.6-3.13-1.3,0-2.41.27-3.32.81-.92.54-1.67,1.33-2.27,2.38-.6,1.04-1.03,2.33-1.3,3.86-.28,1.53-.41,3.28-.41,5.26,0,4.25.57,7.42,1.72,9.5,1.14,2.09,3.01,3.13,5.59,3.13,1.3,0,2.41-.27,3.34-.81.92-.54,1.68-1.33,2.27-2.38.59-1.04,1.02-2.33,1.29-3.86.27-1.53.41-3.28.41-5.26Z"/>
    <path class="st2"
          d="M191.66,66.61c0,1.87-.31,3.59-.93,5.18-.62,1.58-1.55,2.95-2.77,4.11-1.23,1.15-2.76,2.05-4.59,2.69-1.83.64-3.95.96-6.37.96h-3.43v11.54h-6.81v-35.9h10.52c2.33,0,4.38.25,6.17.76,1.79.5,3.29,1.24,4.5,2.21,1.22.97,2.14,2.17,2.77,3.58.63,1.42.95,3.04.95,4.88ZM184.57,67.08c0-.95-.15-1.82-.45-2.6-.3-.78-.76-1.44-1.37-1.99-.61-.55-1.39-.97-2.32-1.26-.93-.29-2.04-.44-3.32-.44h-3.54v13.16h3.76c1.17,0,2.21-.16,3.1-.48.9-.32,1.65-.78,2.27-1.39.61-.6,1.08-1.33,1.4-2.17.32-.84.48-1.79.48-2.83Z"/>
    <path class="st2"
          d="M223.87,72.98c0,3.26-.38,6.07-1.14,8.43-.76,2.36-1.8,4.3-3.13,5.82-1.33,1.52-2.88,2.65-4.67,3.38-1.79.73-3.69,1.1-5.73,1.1-4.72,0-8.28-1.57-10.66-4.71-2.38-3.14-3.57-7.7-3.57-13.69,0-3.26.38-6.07,1.14-8.43.76-2.36,1.8-4.3,3.13-5.82,1.33-1.52,2.88-2.65,4.67-3.38,1.79-.73,3.69-1.1,5.73-1.1,4.72,0,8.28,1.57,10.66,4.7,2.38,3.13,3.57,7.7,3.57,13.71ZM216.73,73.31c0-4.25-.57-7.42-1.7-9.5s-3-3.13-5.6-3.13c-1.3,0-2.41.27-3.32.81-.92.54-1.67,1.33-2.27,2.38-.6,1.04-1.03,2.33-1.3,3.86-.27,1.53-.41,3.28-.41,5.26,0,4.25.57,7.42,1.72,9.5,1.14,2.09,3.01,3.13,5.59,3.13,1.3,0,2.41-.27,3.34-.81.92-.54,1.68-1.33,2.27-2.38.59-1.04,1.02-2.33,1.29-3.86.27-1.53.41-3.28.41-5.26Z"/>
    <path class="st2"
          d="M246.53,91.08l-5.05-11.54c-.48-1.1-1.14-1.93-1.99-2.49-.85-.56-1.85-.84-3.01-.84h-1.29v14.86h-6.76v-35.9h10.46c1.98,0,3.77.17,5.38.51,1.61.34,2.98.9,4.12,1.69,1.13.79,2.01,1.81,2.62,3.08.61,1.26.92,2.81.92,4.64,0,1.32-.19,2.49-.58,3.52-.38,1.03-.92,1.91-1.62,2.65-.7.74-1.52,1.34-2.49,1.8-.96.46-2.01.78-3.14.96.88.18,1.68.68,2.42,1.5.73.81,1.46,1.99,2.2,3.53l5.74,12.03h-7.94ZM244.86,65.76c0-1.76-.56-3.02-1.67-3.79-1.12-.77-2.79-1.15-5.03-1.15h-2.97v10.13h2.75c1.04,0,1.99-.11,2.84-.33s1.58-.55,2.18-.99,1.07-.98,1.4-1.63c.33-.65.49-1.4.49-2.24Z"/>
    <path class="st2" d="M274.74,60.82v30.27h-6.92v-30.27h-9.83v-5.63h26.59v5.63h-9.83Z"/>
    <path class="st2"
          d="M310.08,91.08l-1.98-7.09h-12.52l-2.03,7.09h-6.7l10.63-35.9h9.45l10.63,35.9h-7.47ZM301.93,61.78l-4.72,16.7h9.39l-4.67-16.7Z"/>
    <path class="st2" d="M323.08,91.08v-35.9h6.87v30.1h15.16v5.79h-22.03Z"/>
  </g>
</svg>
