<?xml version="1.0" encoding="UTF-8"?>
<svg id="Layer_1" data-name="Layer 1" xmlns="http://www.w3.org/2000/svg" width="1428.75" height="324"
     viewBox="0 0 1428.75 324">
  <defs>
    <style>
      .cls-1 {
      fill: #ef6b01;
      }

      .cls-2 {
      fill: #393185;
      }
    </style>
  </defs>
  <path class="cls-2"
        d="M46.88,276.6l47.25-46.88.23,34.57c.07,18.97.07,34.57,0,34.72-.15.08-20.78,5.4-45.98,11.85-25.12,6.45-46.43,11.93-47.25,12.15-.82.23,19.73-20.7,45.75-46.42h0ZM46.88,276.6"/>
  <path class="cls-2"
        d="M113.77,293.18c.45-.82,63.83-71.7,67.8-75.98,1.43-1.43,1.43-.75,1.43,28.95v30.38l-34.35,8.78c-18.97,4.8-34.65,8.77-34.95,8.77s-.3-.45.07-.9h0ZM113.77,293.18"/>
  <path class="cls-2"
        d="M197.32,271.88c.6-.82,12.9-16.12,27.3-34.05l26.25-32.55.23,26.55c.07,14.55-.08,26.78-.38,27.07-.38.23-12.23,3.45-26.48,7.05-14.25,3.68-26.32,6.75-26.93,6.98-.97.38-.97.22,0-1.05h0ZM197.32,271.88"/>
  <path class="cls-2"
        d="M269.63,244.8c4.8-6.53,14.7-20.03,21.98-30l13.27-18.15.23,24.08c.07,13.27.07,24.22-.15,24.38-.15.15-9.52,2.62-20.77,5.55-11.32,2.85-21.15,5.4-21.9,5.63-.75.23,2.33-4.57,7.35-11.47h0ZM269.63,244.8"/>
  <path class="cls-2"
        d="M0,235.8c0-.07,20.32-18,45.23-39.68,24.82-21.75,46.05-40.35,47.25-41.4l2.02-1.95v69.83l-47.25,6.67c-26.02,3.75-47.25,6.68-47.25,6.53h0ZM0,235.8"/>
  <path class="cls-2"
        d="M121.35,211.05c4.57-4.88,20.32-20.85,34.95-35.48l26.7-26.63v30.6c0,16.8-.07,30.52-.23,30.52s-15.52,2.18-34.27,4.88-34.35,4.88-34.73,4.88,3-3.97,7.58-8.77h0ZM121.35,211.05"/>
  <path class="cls-2"
        d="M223.73,177.23l27.15-30.68.23,26.62c.07,14.62,0,26.77-.15,27-.38.3-50.93,7.65-53.1,7.65-.83,0,8.77-11.4,25.88-30.6h0ZM223.73,177.23"/>
  <path class="cls-2"
        d="M112.57,145.27c.15-.15,15.98-14.17,35.18-31.2l34.88-30.9.23,29.77c.07,16.43,0,30-.23,30.23-.23.22-14.62.82-32.1,1.35-36.82,1.12-38.4,1.12-37.95.75h0ZM112.57,145.27"/>
  <path class="cls-2"
        d="M223.43,115.65c15-15.3,27.38-27.82,27.52-27.82s.3,12.07.3,26.93v26.85l-18.9.52c-10.43.23-22.88.68-27.6.98l-8.63.45,27.3-27.9ZM223.43,115.65"/>
  <path class="cls-2"
        d="M263.32,139.05c.98-1.28,10.73-12.53,21.68-24.98l19.88-22.57.23,24.15c.07,13.28.07,24.23,0,24.37-.15.08-9.98.45-21.9.75l-21.75.53,1.88-2.25ZM263.32,139.05"/>
  <path class="cls-2"
        d="M284.63,85.88c-10.73-.98-20.4-1.8-21.45-1.95-1.8-.23.22-2.48,20.02-22.73l21.98-22.5.07,24.6c0,13.5-.23,24.45-.52,24.45-.38-.07-9.38-.9-20.1-1.88h0ZM284.63,85.88"/>
  <path class="cls-2"
        d="M220.35,80.4c-12.23-1.12-22.43-2.17-22.73-2.4-.38-.45,52.35-48.68,53.25-48.68.23,0,.38,12,.38,26.62v26.62l-4.27-.07c-2.4-.07-14.4-1.05-26.62-2.1h0ZM220.35,80.4"/>
  <path class="cls-2"
        d="M149.25,74.25c-17.93-1.57-33.6-2.93-34.73-3.07-1.8-.23,2.4-3.68,31.8-26.48,18.68-14.4,34.5-26.7,35.32-27.22,1.28-.98,1.35,0,1.35,29.4,0,16.73-.23,30.38-.52,30.38-.38-.07-15.3-1.43-33.23-3h0ZM149.25,74.25"/>
  <path class="cls-2"
        d="M49.12,65.62c-24.75-2.18-45.98-3.98-47.18-4.12-1.88-.23,4.5-4.65,45-30.9L94.12,0l.23,17.25c.07,9.45.07,25.12,0,34.73l-.23,17.47-45-3.82ZM49.12,65.62"/>
  <path class="cls-2"
        d="M763.88,264.07c-9.07-1.95-14.4-6.75-15.75-14.4l-.52-2.85h3c2.77,0,3,.15,4.2,3.38,2.47,6.3,8.02,9.07,17.02,8.48,8.18-.6,12.75-4.73,11.62-10.5-.82-4.43-3.22-5.85-14.77-8.93-9.45-2.48-13.28-4.2-15.98-7.43-2.4-2.93-3-5.1-2.47-9.45.82-7.43,7.88-12.3,17.85-12.3,7.12,0,12.07,1.65,15.6,5.18,2.25,2.25,5.32,8.7,4.43,9.45-.15.07-1.43.38-2.93.6-2.62.38-2.7.3-4.2-3.23-1.8-4.35-4.58-6-10.65-6.52-8.1-.75-14.32,2.85-14.32,8.1s2.1,6.45,13.95,9.38c4.5,1.12,9.75,2.78,11.7,3.75,11.4,5.78,10.5,20.55-1.65,25.73-4.27,1.88-11.62,2.55-16.12,1.57h0ZM763.88,264.07"/>
  <path class="cls-2"
        d="M999.23,264.07c-6.08-1.27-10.28-4.57-12.75-10.12-1.12-2.62-1.35-5.77-1.58-23.02l-.22-20.1h5.93l.3,18.98c.3,17.18.45,19.2,1.88,22.35,2.03,4.5,6.15,6.68,12.68,6.68,6.07,0,10.65-2.32,12.68-6.38,1.35-2.7,1.5-4.8,1.73-22.27l.3-19.35h5.85v18.98c0,21.9-.52,24.75-5.02,29.18-1.58,1.5-4.12,3.3-5.62,3.9-3.45,1.5-11.93,2.1-16.12,1.2h0ZM999.23,264.07"/>
  <path class="cls-2"
        d="M1131.15,264.07c-4.42-.9-10.27-4.27-13.05-7.43-1.28-1.42-3.23-4.5-4.28-6.82-1.72-3.68-1.95-5.02-1.95-12.38.07-6.82.38-9,1.73-12.52,2.1-5.18,6.67-10.12,11.77-12.6,3.23-1.65,4.8-1.88,11.25-1.88s8.02.23,11.18,1.8c4.95,2.48,9.15,6.82,11.62,12,1.72,3.75,1.95,5.1,1.95,12.82s-.15,9-2.1,13.2c-1.2,2.55-3.38,5.85-4.88,7.28-5.47,5.32-15.52,8.1-23.25,6.52h0ZM1146.45,256.5c6.3-3.82,8.93-10.43,8.4-21.15-.23-6.08-.6-7.5-2.55-11.03-1.65-2.85-3.45-4.8-5.93-6.38-3.3-2.02-4.27-2.25-9.68-2.25s-6.52.3-9.6,2.1c-6.38,3.68-8.85,9.3-8.85,19.65,0,9.38,2.77,15.53,8.62,19.12,5.18,3.15,14.4,3.15,19.57-.07h0ZM1146.45,256.5"/>
  <path class="cls-2" d="M579,237.45v-26.62h6.75v53.25h-6.75v-26.62ZM579,237.45"/>
  <path class="cls-2" d="M615,240.07v-24h-17.25v-5.25h42v5.25h-18v48h-6.75v-24ZM615,240.07"/>
  <path class="cls-2"
        d="M669.75,237.6v-26.78h12.6c18.67,0,23.17,1.88,28.05,11.85,2.4,4.88,2.48,5.25,2.48,14.4s-.07,9.53-2.48,14.4c-4.8,9.82-9.15,11.77-27.67,12.38l-12.98.45v-26.7ZM695.77,257.25c7.28-1.88,10.73-8.4,10.73-20.4,0-7.95-.9-11.48-3.98-15.23-3.3-3.98-6.3-4.95-16.8-5.4l-9.23-.38v42.22h7.95c4.35,0,9.45-.38,11.32-.82h0ZM695.77,257.25"/>
  <path class="cls-2" d="M727.5,237.45v-26.62h6.75v53.25h-6.75v-26.62ZM727.5,237.45"/>
  <path class="cls-2" d="M816.75,240.07v-24h-18v-5.25h42v5.25h-18v48h-6v-24ZM816.75,240.07"/>
  <path class="cls-2"
        d="M851.25,237.45v-26.62h14.85c8.47,0,16.05.38,17.77.82,6.23,1.73,10.95,9.3,9.75,15.6-1.05,5.7-4.8,9.38-11.4,11.32l-3.15.98,3.82,3.45c3.3,2.93,7.05,8.1,13.28,18.3l1.72,2.77h-4.05l-3.98-.07-3.75-6.07c-5.62-9.15-9.82-14.7-12.6-16.35-1.88-1.2-3.75-1.5-8.92-1.5h-6.6v24h-6.75v-26.62ZM884.4,231.23c2.1-2.1,2.48-2.93,2.48-6.08,0-2.62-.45-4.12-1.5-5.32-2.77-3.07-5.62-3.75-16.88-3.75h-10.5v18.07l12-.22,12-.23,2.4-2.47ZM884.4,231.23"/>
  <path class="cls-2" d="M909.75,237.45v-26.62h6v53.25h-6v-26.62ZM909.75,237.45"/>
  <path class="cls-2"
        d="M931.5,237.52v-26.7h12.23c13.88,0,16.72.6,20.7,4.2,5.85,5.18,5.77,12.68,0,17.93-1.65,1.5-2.93,2.78-2.78,2.85,4.8,2.47,6.53,3.82,7.88,6.22,4.35,7.58,0,18-8.62,20.55-1.5.45-8.77,1.05-16.05,1.28l-13.35.45v-26.78ZM960.82,256.35c2.48-1.65,3.68-4.28,3.68-8.25,0-6.75-3.23-8.62-16.43-9.23l-9.82-.52v19.88l10.35-.3c8.25-.15,10.65-.53,12.22-1.57h0ZM956.18,232.88c1.27-.3,3.15-1.27,4.2-2.25,1.5-1.43,1.88-2.4,1.88-5.48,0-7.12-3.45-8.92-17.4-9l-6.6-.07v17.25h7.8c4.27,0,8.77-.22,10.12-.45h0ZM956.18,232.88"/>
  <path class="cls-2"
        d="M1055.25,240.07v-24h-18v-5.25h42v5.18l-8.77.23-8.85.22-.23,23.85-.15,23.77h-6v-24ZM1055.25,240.07"/>
  <path class="cls-2" d="M1091.25,237.45v-26.62h6v53.25h-6v-26.62ZM1091.25,237.45"/>
  <path class="cls-2"
        d="M1174.5,237.45v-26.62h6.75l14.02,21.07,14.1,21.15.23-21.15.15-21.07h6.75v53.25h-6.68l-14.1-21c-7.73-11.55-14.33-21-14.62-21-.38,0-.6,9.45-.6,21v21h-6v-26.62ZM1174.5,237.45"/>
  <path class="cls-1"
        d="M1389.6,170.25c-6.23-.68-9.45-1.65-15.15-4.73-10.65-5.55-19.27-18.22-22.2-32.7-2.02-9.75-2.02-26.18,0-35.85,3.15-15.6,12.3-28.58,24.07-34.12,7.05-3.38,11.62-4.28,21.15-4.28s15.52,1.43,24.38,5.7l6.9,3.3v12.75c0,7.05-.15,12.75-.38,12.75s-3-2.25-6.15-4.95c-7.8-6.82-13.8-9.6-21.6-9.9-7.65-.38-13.12,1.57-17.93,6.22-6.82,6.6-9.75,15.53-9.75,30,.07,18.53,4.8,28.8,15.75,34.2,4.5,2.25,5.62,2.48,12.23,2.48l7.2.07v-21.75l-8.4-.22-8.48-.23v-19.43h37.5v53.1l-6.15,2.4c-11.85,4.5-23.18,6.3-33,5.18h0ZM1389.6,170.25"/>
  <path class="cls-1"
        d="M537.38,169.2c-4.73-1.05-12.82-3.9-16.8-5.93l-2.32-1.27v-12.68c0-7.05.15-12.75.38-12.75s2.48,1.65,4.88,3.75c9.23,7.65,16.57,10.65,26.25,10.73,7.88.07,12.9-1.95,15.15-6.23,1.95-3.6,1.5-9.07-.97-11.7-2.55-2.77-4.5-3.6-14.93-6.68-15.23-4.5-21.82-8.7-26.02-16.65-3.08-5.7-4.28-12.23-3.83-20.1.9-13.43,9.15-24,22.8-29.02,3.75-1.35,6-1.65,14.18-1.57,8.4,0,10.65.3,16.35,2.02,3.67,1.05,7.95,2.62,9.6,3.45l2.93,1.5v12c0,8.18-.23,12-.82,12-.45,0-2.4-1.35-4.28-3-1.88-1.72-5.77-4.2-8.7-5.62-16.57-8.02-33.15-2.02-29.7,10.8,1.12,4.2,4.27,6.15,15.75,9.45,16.88,4.95,23.48,9.23,27.9,18.23,2.25,4.5,2.48,5.77,2.7,12.97.45,12.38-2.48,20.55-9.98,27.6-7.27,6.9-15.98,9.82-28.88,9.75-3.9,0-9.15-.52-11.62-1.05h0ZM537.38,169.2"/>
  <path class="cls-1"
        d="M366.75,159.45v-9.38h12.75v-71.25h-12.75v-18h46.5v18h-12.75v71.25h12.75v18.75h-46.5v-9.38ZM366.75,159.45"/>
  <path class="cls-1"
        d="M429,114.82v-54h26.77l13.73,30.23c7.57,16.57,14.02,30.45,14.4,30.9.3.38.6-13.2.6-30.22v-30.9h19.5v108.07l-10.27-.22-10.2-.23-16.8-37.13c-9.23-20.4-17.1-37.43-17.55-37.88-.38-.38-.68,13.73-.68,37.35v38.02h-19.5v-54ZM429,114.82"/>
  <path class="cls-1"
        d="M597,159.45v-9.38h12.75v-71.25h-12.75v-18h47.25v18h-12.75v71.25h12.75v18.75h-47.25v-9.38ZM597,159.45"/>
  <path class="cls-1"
        d="M659.25,114.98v-54.15h18.98c21.6.07,27.75.82,35.02,4.5,10.43,5.25,19.8,18.3,23.02,32.03,2.1,8.92,1.88,27.07-.38,34.88-4.42,15.52-12.52,26.25-24,32.1-5.7,2.85-12.9,3.75-33.3,4.28l-19.35.45v-54.07ZM701.02,146.48c9.75-5.1,14.48-15.6,14.48-32.03s-4.73-26.93-14.48-32.02c-2.55-1.35-4.72-1.73-11.55-1.95l-8.48-.3v68.55l8.48-.3c6.82-.23,9-.6,11.55-1.95h0ZM701.02,146.48"/>
  <path class="cls-1"
        d="M752.25,114.82v-54h59.25v19.5h-38.25v20.25h35.25v19.5l-17.4.15-17.48.22-.23,14.1-.15,14.02h38.25v20.25h-59.25v-54ZM752.25,114.82"/>
  <path class="cls-1" d="M879.75,124.57v-44.25h-26.25v-19.5h74.25v19.5h-26.25v88.5h-21.75v-44.25ZM879.75,124.57"/>
  <path class="cls-1"
        d="M937.5,114.75v-54l24.23.23,24.15.22,5.02,2.48c5.78,2.85,9.75,6.9,12.45,12.82,1.65,3.45,2.02,5.62,2.25,12,.6,14.7-3.3,23.77-13.65,32.02l-2.85,2.25,13.27,20.62c7.27,11.25,13.73,21,14.25,21.6,1.2,1.2-.6,7.05,16.57-55.2l13.43-48.98h24l14.55,53.1c8.02,29.18,14.77,53.47,14.93,54,.22.75-2.03.9-10.8.75l-11.1-.23-5.4-21.75-14.32-.22-14.33-.15-5.55,22.5h-45.98l-12.45-20.1-12.38-20.03-4.28-.22-4.27-.23v40.57h-21.75v-54.07ZM1067.4,127.13c.23-.23-1.65-8.48-4.12-18.3-2.55-9.9-4.8-17.7-5.1-17.4-.53.68-8.93,33.38-8.93,34.95,0,1.05,1.2,1.2,8.85,1.2,4.88,0,9.07-.22,9.3-.45h0ZM977.25,107.62c4.12-2.4,6.23-6.98,6.3-13.73.07-4.42-.3-6.3-1.43-8.32-2.62-4.35-5.62-5.55-14.77-5.93l-8.1-.22v30.3l7.73-.3c6-.15,8.25-.6,10.27-1.8h0ZM977.25,107.62"/>
  <path class="cls-1"
        d="M1110,114.98v-54.15h18.6c19.5,0,25.35.6,32.02,3.07,12.07,4.5,22.2,17.55,25.8,33,5.4,23.48-.15,46.95-14.25,60.3-9.75,9.15-15.53,10.73-42.82,11.4l-19.35.45v-54.07ZM1151.18,146.77c10.5-5.47,15.82-18.52,14.85-36.15-.67-11.55-3.82-19.65-9.82-24.9-4.88-4.28-6.9-4.95-15.97-5.25l-8.48-.3v68.63l8.48-.38c6.07-.23,9.07-.68,10.95-1.65h0ZM1151.18,146.77"/>
  <path class="cls-1"
        d="M1199.25,159.45v-9.38h12.75v-71.25h-12.75v-18h46.5v18h-12.75v71.25h12.75v18.75h-46.5v-9.38ZM1199.25,159.45"/>
  <path class="cls-1"
        d="M1261.5,114.82v-54h26.77l13.73,30.23c7.5,16.57,13.95,30.45,14.32,30.9.38.38.68-12.52.68-30.22v-30.9h19.5v108.07l-10.27-.22-10.28-.23-16.8-37.13c-9.22-20.4-17.1-37.43-17.47-37.88-.38-.38-.68,13.95-.68,37.35v38.02h-19.5v-54ZM1261.5,114.82"/>
  <path class="cls-2"
        d="M3.45,145.8c2.03-1.57,23.25-17.78,47.18-36l43.5-33.23.23,34.65c.07,19.05.07,34.65,0,34.72-.23.15-88.28,2.7-92.4,2.62-2.1,0-2.1-.07,1.5-2.77h0ZM3.45,145.8"/>
  <path class="cls-2"
        d="M261.82,198.3c.15-.38,9.9-12.75,21.68-27.45l21.38-26.7.23,24.08c.07,13.27.07,24.15,0,24.3-.15.08-8.85,1.43-19.35,2.93s-20.25,2.93-21.68,3.15c-1.5.22-2.4.15-2.25-.3h0ZM261.82,198.3"/>
</svg>
