<?xml version="1.0" encoding="UTF-8"?>
<svg id="Layer_1" data-name="Layer 1" xmlns="http://www.w3.org/2000/svg" viewBox="0 0 92.95 70.01">
  <defs>
    <style>
      .cls-1 {
      fill: #3874ff;
      }
    </style>
  </defs>
  <path class="cls-1"
        d="M89.01,31.04s-2.17-.11-3.34-1.61c-1.21-1.55-1.33-4.41-.35-8.25,1.43-5.63.8-10.42-1.86-14.22C79.2.9,71.35.05,71.01.02c-.13-.01-.26-.02-.4-.02-2.04,0-3.74,1.54-3.94,3.57-.1,1.05.21,2.08.88,2.9s1.62,1.33,2.67,1.43c.05,0,4.59.55,6.73,3.61,1.28,1.83,1.51,4.43.67,7.72-1.62,6.39-1.03,11.46,1.78,15.06.19.24.39.48.6.71-.21.23-.41.46-.6.71-2.8,3.61-3.4,8.67-1.78,15.06.83,3.28.61,5.87-.65,7.7-2.13,3.08-6.73,3.63-6.77,3.64-2.16.23-3.74,2.17-3.53,4.33.2,2.03,1.9,3.57,3.94,3.57.13,0,.26,0,.4-.02.33-.03,8.18-.88,12.43-6.94,2.67-3.81,3.3-8.59,1.86-14.22-.97-3.81-.86-6.65.33-8.21,1.16-1.54,3.32-1.64,3.4-1.65,2.16-.02,3.92-1.8,3.92-3.96s-1.78-3.96-3.94-3.96Z"/>
  <path class="cls-1"
        d="M22.75,62.11c-.19-.02-4.67-.6-6.78-3.64-1.27-1.83-1.49-4.42-.65-7.7,1.62-6.39,1.03-11.46-1.78-15.06-.19-.24-.39-.48-.6-.71.21-.23.41-.46.6-.71,2.8-3.6,3.4-8.67,1.78-15.06-.83-3.28-.61-5.87.65-7.7,2.1-3.04,6.59-3.62,6.77-3.64,2.16-.22,3.75-2.17,3.53-4.33-.2-2.03-1.9-3.57-3.94-3.57-.13,0-.26,0-.4.02-.33.03-8.18.88-12.43,6.94-2.67,3.81-3.29,8.59-1.86,14.22.97,3.81.85,6.65-.33,8.21-1.18,1.55-3.39,1.65-3.4,1.65-2.16.02-3.92,1.8-3.92,3.96s1.76,3.94,3.9,3.96c.09,0,2.25.11,3.41,1.65,1.18,1.56,1.29,4.4.33,8.21-1.43,5.63-.8,10.42,1.86,14.22,4.25,6.06,12.1,6.91,12.43,6.94.13.01.27.02.4.02,2.05,0,3.74-1.53,3.95-3.57.1-1.05-.2-2.08-.87-2.9-.67-.82-1.62-1.33-2.66-1.43Z"/>
  <path class="cls-1"
        d="M69.16,17.1H27.09c-2.18,0-3.96,1.78-3.96,3.96s1.78,3.96,3.96,3.96h42.06c2.18,0,3.96-1.78,3.96-3.96s-1.78-3.96-3.96-3.96Z"/>
  <path class="cls-1"
        d="M27.09,32.19c-2.18,0-3.96,1.78-3.96,3.96s1.78,3.96,3.96,3.96h9.07c2.18,0,3.96-1.78,3.96-3.96s-1.78-3.96-3.96-3.96h-9.07Z"/>
  <path class="cls-1"
        d="M69.16,32.19h-21.87c-2.18,0-3.96,1.78-3.96,3.96s1.78,3.96,3.96,3.96h21.87c2.18,0,3.96-1.78,3.96-3.96s-1.78-3.96-3.96-3.96Z"/>
  <path class="cls-1"
        d="M48.66,47.27h-21.56c-2.18,0-3.96,1.78-3.96,3.96s1.78,3.96,3.96,3.96h21.56c2.18,0,3.96-1.78,3.96-3.96s-1.78-3.96-3.96-3.96Z"/>
</svg>
