<?xml version="1.0" encoding="UTF-8"?>
<svg id="Layer_1" xmlns="http://www.w3.org/2000/svg" version="1.1" viewBox="0 0 800 800">
  <!-- Generator: Adobe Illustrator 29.1.0, SVG Export Plug-In . SVG Version: 2.1.0 Build 142)  -->
  <defs>
    <style>
      .st0 {
      fill: #687787;
      }

      .st1 {
      fill: #eff1f3;
      }
    </style>
  </defs>
  <rect class="st1" y="0" width="800" height="800"/>
  <path class="st0"
        d="M516,551.4c7.1,0,13-5.9,13-13v-234h-65c-14.4,0-26-11.6-26-26v-65h-130c-7.1,0-13,5.9-13,13v312c0,7.1,5.9,13,13,13h208ZM256,226.4c0-28.7,23.3-52,52-52h134.5c13.8,0,27.1,5.4,36.8,15.2l73.5,73.5c9.8,9.8,15.2,23,15.2,36.8v238.5c0,28.7-23.3,52-52,52h-208c-28.7,0-52-23.3-52-52V226.4Z"/>
</svg>
